<?xml version="1.0" encoding="UTF-8" standalone="no"?>
<!DOCTYPE svg PUBLIC "-//W3C//DTD SVG 1.1//EN"
 "http://www.w3.org/Graphics/SVG/1.1/DTD/svg11.dtd">
<!-- Generated by graphviz version 2.40.1 (20161225.0304)
 -->
<!-- Title: G Pages: 1 -->
<svg width="926pt" height="532pt"
 viewBox="0.00 0.00 926.00 532.00" xmlns="http://www.w3.org/2000/svg" xmlns:xlink="http://www.w3.org/1999/xlink">
<g id="graph0" class="graph" transform="scale(1 1) rotate(0) translate(4 528)">
<title>G</title>
<polygon fill="#ffffff" stroke="transparent" points="-4,4 -4,-528 922,-528 922,4 -4,4"/>
<g id="clust1" class="cluster">
<title>cluster_1</title>
<polygon fill="none" stroke="#000000" stroke-width="2" points="8,-8 8,-516 910,-516 910,-8 8,-8"/>
<text text-anchor="middle" x="459" y="-500" font-family="Arial" font-size="15.00" fill="#000000">YOLOv5master</text>
</g>
<g id="clust3" class="cluster">
<title>cluster_3</title>
<polygon fill="none" stroke="#000000" stroke-width="2" points="536,-373 536,-450 902,-450 902,-373 536,-373"/>
<text text-anchor="middle" x="719" y="-434" font-family="Arial" font-size="15.00" fill="#000000">datasets</text>
</g>
<g id="clust7" class="cluster">
<title>cluster_7</title>
<polygon fill="none" stroke="#000000" stroke-width="2" points="236,-224 236,-450 528,-450 528,-224 236,-224"/>
<text text-anchor="middle" x="382" y="-434" font-family="Arial" font-size="15.00" fill="#000000">utils</text>
</g>
<g id="clust8" class="cluster">
<title>cluster_8</title>
<polygon fill="none" stroke="#000000" stroke-width="2" points="536,-80 536,-301 748,-301 748,-80 536,-80"/>
<text text-anchor="middle" x="642" y="-285" font-family="Arial" font-size="15.00" fill="#000000">models</text>
</g>
<g id="clust13" class="cluster">
<title>cluster_13</title>
<polygon fill="none" stroke="#000000" stroke-width="2" points="136,-365 136,-483 228,-483 228,-365 136,-365"/>
<text text-anchor="middle" x="182" y="-467" font-family="Arial" font-size="15.00" fill="#000000">readmepic</text>
</g>
<g id="clust14" class="cluster">
<title>cluster_14</title>
<polygon fill="none" stroke="#000000" stroke-width="2" points="144,-373 144,-450 220,-450 220,-373 144,-373"/>
<text text-anchor="middle" x="182" y="-434" font-family="Arial" font-size="15.00" fill="#000000">readme2</text>
</g>
<g id="clust17" class="cluster">
<title>cluster_17</title>
<polygon fill="none" stroke="#000000" stroke-width="2" points="16,-373 16,-450 128,-450 128,-373 16,-373"/>
<text text-anchor="middle" x="72" y="-434" font-family="Arial" font-size="15.00" fill="#000000">data</text>
</g>
<!-- 04_myData_label -->
<g id="node1" class="node">
<title>04_myData_label</title>
<polygon fill="#ffd56b" stroke="#dfe0df" points="894,-417 778,-417 778,-381 894,-381 894,-417"/>
<text text-anchor="middle" x="836" y="-395.3" font-family="Times,serif" font-size="14.00" fill="#000000">04_myData_label</text>
</g>
<!-- 01_check_img -->
<g id="node2" class="node">
<title>01_check_img</title>
<polygon fill="#ffd56b" stroke="#dfe0df" points="759.5,-417 660.5,-417 660.5,-381 759.5,-381 759.5,-417"/>
<text text-anchor="middle" x="710" y="-395.3" font-family="Times,serif" font-size="14.00" fill="#000000">01_check_img</text>
</g>
<!-- 02_check_box -->
<g id="node3" class="node">
<title>02_check_box</title>
<polygon fill="#ffd56b" stroke="#dfe0df" points="642,-417 544,-417 544,-381 642,-381 642,-417"/>
<text text-anchor="middle" x="593" y="-395.3" font-family="Times,serif" font-size="14.00" fill="#000000">02_check_box</text>
</g>
<!-- activations -->
<g id="node4" class="node">
<title>activations</title>
<polygon fill="#ffd56b" stroke="#dfe0df" points="519.5,-417 442.5,-417 442.5,-381 519.5,-381 519.5,-417"/>
<text text-anchor="middle" x="481" y="-395.3" font-family="Times,serif" font-size="14.00" fill="#000000">activations</text>
</g>
<!-- datasets -->
<g id="node5" class="node">
<title>datasets</title>
<polygon fill="#ffd56b" stroke="#dfe0df" points="467.5,-268 406.5,-268 406.5,-232 467.5,-232 467.5,-268"/>
<text text-anchor="middle" x="437" y="-246.3" font-family="Times,serif" font-size="14.00" fill="#000000">datasets</text>
</g>
<!-- test -->
<g id="node13" class="node">
<title>test</title>
<polygon fill="#ffb26b" stroke="#dfe0df" points="414,-196 360,-196 360,-160 414,-160 414,-196"/>
<text text-anchor="middle" x="387" y="-174.3" font-family="Times,serif" font-size="14.00" fill="#000000">test</text>
</g>
<!-- datasets&#45;&gt;test -->
<g id="edge7" class="edge">
<title>datasets&#45;&gt;test</title>
<polygon fill="#a3d2ca" stroke="transparent" stroke-width="6" points="424.3829,-231.8314 423.3546,-230.1063 422.302,-228.3404 421.2277,-226.5381 420.1345,-224.7041 419.025,-222.8428 417.9019,-220.9586 416.7679,-219.0561 415.6256,-217.1398 414.4778,-215.2141 413.3271,-213.2836 412.1761,-211.3528 411.0277,-209.4261 409.8844,-207.5081 408.749,-205.6032 407.6241,-203.716 406.5124,-201.851 405.4165,-200.0125 404.3392,-198.2052 403.2832,-196.4336 402.2511,-194.7021 397.3229,-198.1245 398.5848,-199.6964 399.876,-201.3047 401.1932,-202.9454 402.533,-204.6144 403.8923,-206.3075 405.2677,-208.0208 406.656,-209.7501 408.0538,-211.4913 409.458,-213.2404 410.8652,-214.9932 412.2721,-216.7458 413.6756,-218.4939 415.0722,-220.2336 416.4588,-221.9608 417.8319,-223.6713 419.1885,-225.3611 420.5252,-227.026 421.8386,-228.6621 423.1256,-230.2653 424.3829,-231.8314 424.3829,-231.8314"/>
</g>
<!-- train -->
<g id="node14" class="node">
<title>train</title>
<polygon fill="#ff7b54" stroke="#dfe0df" points="506,-52 452,-52 452,-16 506,-16 506,-52"/>
<text text-anchor="middle" x="479" y="-30.3" font-family="Times,serif" font-size="14.00" fill="#000000">train</text>
</g>
<!-- datasets&#45;&gt;train -->
<g id="edge11" class="edge">
<title>datasets&#45;&gt;train</title>
<polygon fill="#a3d2ca" stroke="transparent" stroke-width="6" points="438.2142,-231.7872 438.5527,-227.711 438.911,-223.3958 439.2852,-218.8899 439.6712,-214.2418 440.065,-209.5001 440.4625,-204.713 440.8597,-199.9292 441.2527,-195.197 441.6374,-190.5649 442.0097,-186.0814 442.3657,-181.7949 442.7012,-177.7539 443.0124,-174.0068 443.2951,-170.6022 443.5454,-167.5883 443.7592,-165.0138 443.9325,-162.927 444.0613,-161.3765 444.1415,-160.4107 444.1608,-160.2022 444.288,-159.79 444.7553,-158.2497 445.5034,-155.7843 446.5069,-152.4767 447.7407,-148.4102 449.1796,-143.6679 450.7983,-138.333 452.5716,-132.4885 454.4742,-126.2177 456.481,-119.6036 458.5667,-112.7295 460.7061,-105.6784 462.8739,-98.5336 465.045,-91.378 467.194,-84.295 469.2959,-77.3675 471.3253,-70.6789 473.2571,-64.3121 475.0659,-58.3504 476.7266,-52.8769 470.9575,-51.2286 469.4759,-56.7533 467.8621,-62.7707 466.1387,-69.197 464.3282,-75.9482 462.453,-82.9404 460.5357,-90.0897 458.5988,-97.3121 456.6647,-104.5238 454.7561,-111.6408 452.8954,-118.5792 451.105,-125.2551 449.4076,-131.5845 447.8255,-137.4836 446.3814,-142.8684 445.0978,-147.6551 443.997,-151.7596 443.1017,-155.0981 442.4343,-157.5866 442.0174,-159.1412 441.8392,-159.7978 441.8141,-160.2555 441.7654,-161.2235 441.6872,-162.7774 441.582,-164.8687 441.4521,-167.4488 441.3001,-170.4692 441.1284,-173.8812 440.9394,-177.6365 440.7356,-181.6862 440.5194,-185.9821 440.2933,-190.4753 440.0596,-195.1175 439.821,-199.8599 439.5797,-204.6542 439.3383,-209.4516 439.0991,-214.2037 438.8647,-218.8618 438.6374,-223.3775 438.4198,-227.7021 438.2142,-231.7872 438.2142,-231.7872"/>
</g>
<!-- detect -->
<g id="node18" class="node">
<title>detect</title>
<polygon fill="#ff7b54" stroke="#dfe0df" points="506,-196 452,-196 452,-160 506,-160 506,-196"/>
<text text-anchor="middle" x="479" y="-174.3" font-family="Times,serif" font-size="14.00" fill="#000000">detect</text>
</g>
<!-- datasets&#45;&gt;detect -->
<g id="edge16" class="edge">
<title>datasets&#45;&gt;detect</title>
<polygon fill="#a3d2ca" stroke="transparent" stroke-width="6" points="447.5984,-231.8314 448.6787,-230.256 449.7846,-228.6434 450.9132,-226.9976 452.0618,-225.3227 453.2274,-223.623 454.4074,-221.9023 455.5988,-220.165 456.7989,-218.415 458.0048,-216.6565 459.2137,-214.8935 460.4229,-213.1303 461.6295,-211.3709 462.8306,-209.6193 464.0235,-207.8798 465.2054,-206.1564 466.3733,-204.4532 467.5246,-202.7744 468.6564,-201.124 469.7659,-199.5061 470.8503,-197.9249 465.6676,-194.9017 464.8249,-196.6239 463.9627,-198.386 463.0832,-200.1836 462.1885,-202.0121 461.2809,-203.8672 460.3625,-205.7442 459.4355,-207.6388 458.502,-209.5465 457.5644,-211.4629 456.6248,-213.3833 455.6853,-215.3034 454.7481,-217.2187 453.8155,-219.1248 452.8897,-221.017 451.9727,-222.8911 451.0669,-224.7424 450.1744,-226.5666 449.2973,-228.3591 448.4379,-230.1155 447.5984,-231.8314 447.5984,-231.8314"/>
</g>
<!-- utils -->
<g id="node6" class="node">
<title>utils</title>
<polygon fill="#ffb26b" stroke="#dfe0df" points="514,-345 460,-345 460,-309 514,-309 514,-345"/>
<text text-anchor="middle" x="487" y="-323.3" font-family="Times,serif" font-size="14.00" fill="#000000">utils</text>
</g>
<!-- utils&#45;&gt;datasets -->
<g id="edge1" class="edge">
<title>utils&#45;&gt;datasets</title>
<polygon fill="#a3d2ca" stroke="transparent" stroke-width="6" points="475.1507,-308.7521 474.0528,-306.8079 472.9244,-304.8099 471.7691,-302.764 470.59,-300.6762 469.3908,-298.5526 468.1746,-296.3991 466.945,-294.2217 465.7054,-292.0266 464.4591,-289.8196 463.2095,-287.6069 461.96,-285.3944 460.714,-283.188 459.475,-280.994 458.2462,-278.8182 457.0312,-276.6666 455.8332,-274.5453 454.6558,-272.4603 453.5022,-270.4176 452.3759,-268.4232 451.2803,-266.4831 446.2482,-269.7508 447.5747,-271.5409 448.9385,-273.3811 450.3352,-275.2659 451.7609,-277.1897 453.2114,-279.147 454.6826,-281.1322 456.1704,-283.1398 457.6706,-285.1643 459.1792,-287.2 460.6921,-289.2415 462.2051,-291.2832 463.7142,-293.3196 465.2152,-295.345 466.704,-297.354 468.1765,-299.341 469.6286,-301.3005 471.0562,-303.2269 472.4551,-305.1147 473.8213,-306.9582 475.1507,-308.7521 475.1507,-308.7521"/>
</g>
<!-- common -->
<g id="node11" class="node">
<title>common</title>
<polygon fill="#ffd56b" stroke="#dfe0df" points="621.5,-268 556.5,-268 556.5,-232 621.5,-232 621.5,-268"/>
<text text-anchor="middle" x="589" y="-246.3" font-family="Times,serif" font-size="14.00" fill="#000000">common</text>
</g>
<!-- utils&#45;&gt;common -->
<g id="edge5" class="edge">
<title>utils&#45;&gt;common</title>
<polygon fill="#a3d2ca" stroke="transparent" stroke-width="6" points="514.1988,-311.2072 514.5486,-311.0236 514.8852,-310.8471 515.2079,-310.6778 515.5162,-310.516 515.8098,-310.362 516.088,-310.2161 516.3504,-310.0784 516.5965,-309.9493 516.8257,-309.8291 517.0377,-309.7179 517.2318,-309.6161 517.4076,-309.5238 517.5646,-309.4415 517.7023,-309.3692 517.8201,-309.3074 517.9177,-309.2562 517.9944,-309.216 518.0499,-309.1869 518.0835,-309.1693 518.0943,-309.1636 518.1977,-309.1103 518.4953,-308.9568 518.9651,-308.7145 519.5854,-308.3945 520.3349,-308.008 521.1919,-307.5659 522.135,-307.0794 523.1427,-306.5597 524.1934,-306.0178 525.2656,-305.4647 526.3378,-304.9117 527.3884,-304.3698 528.3961,-303.85 529.3392,-303.3636 530.1962,-302.9215 530.9457,-302.5349 531.566,-302.2149 532.0358,-301.9726 532.3334,-301.8191 532.5184,-301.7192 532.7433,-301.5296 533.1969,-301.1575 533.9297,-300.5564 534.9228,-299.7418 536.1573,-298.7293 537.6141,-297.5344 539.2743,-296.1726 541.119,-294.6595 543.1291,-293.0107 545.2859,-291.2416 547.5702,-289.3679 549.9632,-287.4051 552.4459,-285.3687 554.9993,-283.2743 557.6045,-281.1374 560.2425,-278.9736 562.8944,-276.7984 565.5412,-274.6274 568.164,-272.4761 570.7438,-270.36 566.7431,-265.8886 564.3543,-268.2181 561.9257,-270.5864 559.4748,-272.9765 557.0192,-275.3711 554.5765,-277.7532 552.1642,-280.1057 549.7999,-282.4114 547.501,-284.6532 545.2852,-286.8141 543.17,-288.8768 541.1729,-290.8243 539.3116,-292.6395 537.6035,-294.3052 536.0662,-295.8044 534.7172,-297.1199 533.5742,-298.2345 532.6546,-299.1313 531.976,-299.793 531.556,-300.2026 531.4816,-300.2808 531.4636,-300.2969 531.1802,-300.4754 530.733,-300.7571 530.1423,-301.1291 529.4288,-301.5785 528.6128,-302.0924 527.7149,-302.658 526.7556,-303.2622 525.7552,-303.8923 524.7344,-304.5353 523.7136,-305.1782 522.7133,-305.8083 521.754,-306.4126 520.8561,-306.9781 520.0401,-307.492 519.3266,-307.9415 518.7359,-308.3135 518.2887,-308.5952 518.0053,-308.7737 517.9057,-308.8364 517.8944,-308.8436 517.8624,-308.864 517.8097,-308.8978 517.7367,-308.9445 517.6439,-309.0038 517.5317,-309.0755 517.4008,-309.1593 517.2514,-309.2548 517.0842,-309.3618 516.8995,-309.4799 516.6979,-309.6088 516.4798,-309.7483 516.2457,-309.8981 515.996,-310.0577 515.7313,-310.227 515.4521,-310.4056 515.1587,-310.5932 514.8517,-310.7895 514.5316,-310.9943 514.1988,-311.2072 514.1988,-311.2072"/>
</g>
<!-- utils&#45;&gt;test -->
<g id="edge8" class="edge">
<title>utils&#45;&gt;test</title>
<polygon fill="#a3d2ca" stroke="transparent" stroke-width="6" points="459.8135,-319.0579 455.8427,-317.8213 451.7644,-316.5512 447.6121,-315.258 443.4195,-313.9524 439.2202,-312.6446 435.0479,-311.3453 430.9363,-310.0648 426.9191,-308.8137 423.0298,-307.6025 419.3021,-306.4416 415.7697,-305.3415 412.4663,-304.3128 409.4254,-303.3658 406.6808,-302.511 404.2662,-301.759 402.215,-301.1203 400.5611,-300.6052 399.3381,-300.2243 398.5796,-299.9881 399.0649,-300.1249 399.0971,-300.3814 398.9898,-298.8834 398.818,-296.485 398.5874,-293.2666 398.3039,-289.3087 397.9731,-284.6917 397.6009,-279.496 397.193,-273.802 396.7552,-267.6902 396.2932,-261.2409 395.8128,-254.5347 395.3197,-247.6518 394.8198,-240.6727 394.3187,-233.6779 393.8223,-226.7478 393.3362,-219.9627 392.8663,-213.4032 392.4183,-207.1496 391.998,-201.2823 391.6112,-195.8818 385.635,-196.4163 386.2126,-201.7997 386.84,-207.6485 387.5088,-213.8823 388.2103,-220.4212 388.9359,-227.1848 389.6771,-234.093 390.4251,-241.0657 391.1715,-248.0228 391.9076,-254.8839 392.6247,-261.569 393.3145,-267.9979 393.9681,-274.0905 394.577,-279.7665 395.1327,-284.9458 395.6264,-289.5482 396.0497,-293.4936 396.3939,-296.7018 396.6504,-299.0926 396.8106,-300.5859 396.9351,-301.8751 397.9437,-302.1648 398.7101,-302.374 399.9458,-302.7114 401.6169,-303.1677 403.6893,-303.7336 406.1291,-304.3997 408.9022,-305.1569 411.9746,-305.9958 415.3123,-306.9072 418.8814,-307.8817 422.6478,-308.9101 426.5775,-309.983 430.6365,-311.0913 434.7908,-312.2256 439.0063,-313.3766 443.2492,-314.5351 447.4854,-315.6918 451.6808,-316.8373 455.8015,-317.9624 459.8135,-319.0579 459.8135,-319.0579"/>
</g>
<!-- utils&#45;&gt;train -->
<g id="edge12" class="edge">
<title>utils&#45;&gt;train</title>
<polygon fill="#a3d2ca" stroke="transparent" stroke-width="6" points="490.8933,-308.785 492.1743,-303.1083 493.5733,-296.9092 495.0703,-290.2755 496.6455,-283.2954 498.2791,-276.0567 499.9511,-268.6474 501.6418,-261.1556 503.3313,-253.6692 504.9997,-246.2761 506.6272,-239.0643 508.1939,-232.1219 509.68,-225.5367 511.0655,-219.3968 512.3308,-213.7901 513.4559,-208.8046 514.4209,-204.5283 515.2061,-201.0492 515.7915,-198.4551 516.1573,-196.8342 516.3126,-196.1387 516.3156,-195.739 516.3241,-194.992 516.3375,-193.813 516.3552,-192.256 516.3766,-190.375 516.4011,-188.224 516.428,-185.857 516.4568,-183.328 516.4868,-180.691 516.5174,-178 516.5481,-175.309 516.5781,-172.672 516.6069,-170.143 516.6338,-167.776 516.6583,-165.625 516.6797,-163.744 516.6974,-162.187 516.7108,-161.008 516.7193,-160.261 516.7223,-159.7588 516.5094,-158.9907 516.0849,-157.4382 515.4054,-154.9532 514.4938,-151.6194 513.373,-147.5206 512.0659,-142.7406 510.5955,-137.3633 508.9847,-131.4724 507.2564,-125.1518 505.4334,-118.4852 503.5388,-111.5565 501.5954,-104.4494 499.6262,-97.2478 497.654,-90.0354 495.7018,-82.8961 493.7925,-75.9137 491.949,-69.1719 490.1942,-62.7546 488.5511,-56.7455 487.0425,-51.2286 481.2734,-52.8769 482.9071,-58.3581 484.6866,-64.3282 486.587,-70.7039 488.5834,-77.402 490.6511,-84.3392 492.7653,-91.4322 494.9011,-98.5978 497.0338,-105.7528 499.1384,-112.8138 501.1902,-119.6976 503.1644,-126.3209 505.0361,-132.6006 506.7806,-138.4533 508.373,-143.7957 509.7885,-148.5447 511.0023,-152.6169 511.9896,-155.9291 512.7255,-158.3981 513.1852,-159.9405 513.2777,-160.2412 513.2807,-160.261 513.2892,-161.008 513.3026,-162.187 513.3203,-163.744 513.3417,-165.625 513.3662,-167.776 513.3931,-170.143 513.4219,-172.672 513.4519,-175.309 513.4826,-178 513.5132,-180.691 513.5432,-183.328 513.572,-185.857 513.5989,-188.224 513.6234,-190.375 513.6448,-192.256 513.6625,-193.813 513.6759,-194.992 513.6844,-195.739 513.6874,-195.8613 513.6028,-196.2882 513.274,-197.9171 512.7478,-200.5238 512.0421,-204.0199 511.1746,-208.317 510.1633,-213.3268 509.0259,-218.9608 507.7804,-225.1307 506.4446,-231.748 505.0363,-238.7243 503.5734,-245.9712 502.0737,-253.4004 500.555,-260.9233 499.0353,-268.4517 497.5323,-275.8971 496.0639,-283.1711 494.648,-290.1852 493.3023,-296.8512 492.0448,-303.0806 490.8933,-308.785 490.8933,-308.785"/>
</g>
<!-- hubconf -->
<g id="node15" class="node">
<title>hubconf</title>
<polygon fill="#ff7b54" stroke="#dfe0df" points="790,-52 728,-52 728,-16 790,-16 790,-52"/>
<text text-anchor="middle" x="759" y="-30.3" font-family="Times,serif" font-size="14.00" fill="#000000">hubconf</text>
</g>
<!-- utils&#45;&gt;hubconf -->
<g id="edge14" class="edge">
<title>utils&#45;&gt;hubconf</title>
<polygon fill="#a3d2ca" stroke="transparent" stroke-width="6" points="514.1988,-311.2072 514.5413,-311.0111 514.8708,-310.8224 515.1868,-310.6416 515.4888,-310.4687 515.7762,-310.3042 516.0486,-310.1482 516.3055,-310.0012 516.5465,-309.8632 516.771,-309.7347 516.9785,-309.6159 517.1686,-309.5071 517.3407,-309.4086 517.4944,-309.3206 517.6292,-309.2434 517.7446,-309.1774 517.8402,-309.1227 517.9153,-309.0797 517.9696,-309.0486 518.0025,-309.0297 518.0077,-309.0268 519.6978,-308.9795 524.5543,-308.8434 532.2194,-308.6286 542.342,-308.3449 554.5711,-308.0022 568.5556,-307.6102 583.9443,-307.179 600.3863,-306.7182 617.5304,-306.2377 635.0256,-305.7474 652.5207,-305.2571 669.6648,-304.7766 686.1068,-304.3158 701.4955,-303.8845 715.48,-303.4926 727.7091,-303.1499 737.8317,-302.8662 745.4968,-302.6514 750.3533,-302.5153 753.4319,-302.4205 753.5125,-299.6658 753.6408,-295.7059 753.8451,-289.396 754.1178,-280.9733 754.4512,-270.675 754.8377,-258.7384 755.2696,-245.4005 755.7392,-230.8987 756.2387,-215.4701 756.7606,-199.352 757.2972,-182.7815 757.8407,-165.9959 758.3835,-149.2323 758.9179,-132.728 759.4362,-116.7202 759.9307,-101.4461 760.3939,-87.1429 760.8179,-74.0477 761.1951,-62.3979 761.5178,-52.4306 755.5199,-52.2734 755.3199,-62.2439 755.0862,-73.8975 754.8234,-86.9968 754.5365,-101.3047 754.23,-116.5837 753.9088,-132.5967 753.5777,-149.1063 753.2414,-165.8753 752.9046,-182.6663 752.5721,-199.2422 752.2487,-215.3655 751.9392,-230.7991 751.6482,-245.3056 751.3806,-258.6477 751.1411,-270.5883 750.9345,-280.8899 750.7655,-289.3153 750.6389,-295.6272 750.5594,-299.5884 750.5681,-299.5795 750.2537,-299.6007 745.3992,-299.7966 737.7373,-300.1058 727.6189,-300.5141 715.395,-301.0074 701.4165,-301.5715 686.0342,-302.1922 669.5992,-302.8554 652.4623,-303.5469 634.9744,-304.2526 617.4866,-304.9583 600.3497,-305.6498 583.9147,-306.313 568.5324,-306.9338 554.5539,-307.4978 542.33,-307.9911 532.2116,-308.3994 524.5497,-308.7086 519.6952,-308.9045 517.9923,-308.9732 517.9754,-308.9831 517.9427,-309.0023 517.8888,-309.0341 517.8142,-309.078 517.7194,-309.1339 517.6048,-309.2013 517.4709,-309.2802 517.3183,-309.37 517.1474,-309.4707 516.9587,-309.5818 516.7526,-309.7032 516.5297,-309.8344 516.2905,-309.9753 516.0354,-310.1256 515.7649,-310.2848 515.4796,-310.4529 515.1798,-310.6294 514.8661,-310.8142 514.5389,-311.0069 514.1988,-311.2072 514.1988,-311.2072"/>
</g>
<!-- utils&#45;&gt;detect -->
<g id="edge17" class="edge">
<title>utils&#45;&gt;detect</title>
<polygon fill="#a3d2ca" stroke="transparent" stroke-width="6" points="486.019,-308.7297 485.898,-304.2421 485.7673,-299.3972 485.628,-294.2345 485.4812,-288.7938 485.328,-283.1146 485.1694,-277.2366 485.0065,-271.1993 484.8404,-265.0426 484.6721,-258.8058 484.5028,-252.5288 484.3334,-246.251 484.1651,-240.0122 483.9989,-233.852 483.8359,-227.8099 483.6771,-221.9257 483.5237,-216.2389 483.3767,-210.7892 483.2371,-205.6163 483.1061,-200.7596 482.9847,-196.2589 476.9933,-196.5806 477.3545,-201.0684 477.7442,-205.9112 478.1593,-211.0694 478.5967,-216.5035 479.053,-222.174 479.5253,-228.0414 480.0101,-234.0661 480.5045,-240.2088 481.0051,-246.4297 481.5089,-252.6895 482.0127,-258.9486 482.5132,-265.1675 483.0072,-271.3067 483.4917,-277.3266 483.9634,-283.1878 484.4192,-288.8508 484.8558,-294.276 485.2701,-299.4238 485.6589,-304.2549 486.019,-308.7297 486.019,-308.7297"/>
</g>
<!-- google_utils -->
<g id="node7" class="node">
<title>google_utils</title>
<polygon fill="#ffd56b" stroke="#dfe0df" points="330,-417 244,-417 244,-381 330,-381 330,-417"/>
<text text-anchor="middle" x="287" y="-395.3" font-family="Times,serif" font-size="14.00" fill="#000000">google_utils</text>
</g>
<!-- google_utils&#45;&gt;utils -->
<g id="edge2" class="edge">
<title>google_utils&#45;&gt;utils</title>
<polygon fill="#a3d2ca" stroke="transparent" stroke-width="6" points="314.8268,-380.8056 316.6993,-379.6327 318.5549,-378.4705 320.385,-377.3243 322.181,-376.1994 323.9345,-375.1012 325.6367,-374.035 327.2793,-373.0062 328.8536,-372.0202 330.351,-371.0823 331.7631,-370.1979 333.0814,-369.3722 334.2971,-368.6108 335.4018,-367.9189 336.387,-367.3018 337.2441,-366.765 337.9645,-366.3138 338.5397,-365.9535 338.9612,-365.6896 339.2203,-365.5273 339.2305,-365.523 339.7149,-365.4105 341.3817,-365.0171 344.0552,-364.386 347.6498,-363.5375 352.0799,-362.4918 357.2599,-361.269 363.1043,-359.8895 369.5274,-358.3733 376.4437,-356.7407 383.7677,-355.0119 391.4137,-353.207 399.2962,-351.3464 407.3296,-349.4501 415.4284,-347.5384 423.5069,-345.6315 431.4795,-343.7495 439.2608,-341.9128 446.7652,-340.1414 453.9069,-338.4556 460.6006,-336.8755 459.1084,-331.064 452.4816,-332.9041 445.411,-334.8674 437.9816,-336.9304 430.2779,-339.0695 422.3848,-341.2612 414.3869,-343.482 406.3689,-345.7084 398.4157,-347.9168 390.6118,-350.0837 383.042,-352.1856 375.7911,-354.199 368.9438,-356.1003 362.5847,-357.866 356.7987,-359.4727 351.6703,-360.8967 347.2845,-362.1145 343.7257,-363.1027 341.0789,-363.8376 339.4287,-364.2959 338.7695,-364.477 338.6054,-364.5867 338.3528,-364.759 337.9419,-365.0392 337.3812,-365.4217 336.679,-365.9007 335.8435,-366.4705 334.8832,-367.1256 333.8063,-367.8601 332.6212,-368.6684 331.3362,-369.5449 329.9597,-370.4838 328.4999,-371.4794 326.9653,-372.5261 325.3642,-373.6182 323.7049,-374.75 321.9956,-375.9158 320.2449,-377.11 318.4609,-378.3268 316.6521,-379.5605 314.8268,-380.8056 314.8268,-380.8056"/>
</g>
<!-- google_utils&#45;&gt;hubconf -->
<g id="edge15" class="edge">
<title>google_utils&#45;&gt;hubconf</title>
<polygon fill="#a3d2ca" stroke="transparent" stroke-width="6" points="314.8268,-380.8056 316.6809,-379.6045 318.5182,-378.4143 320.3302,-377.2404 322.1085,-376.0885 323.8446,-374.9638 325.5301,-373.8719 327.1564,-372.8184 328.7152,-371.8086 330.1979,-370.8481 331.5961,-369.9424 332.9013,-369.0969 334.1051,-368.3171 335.1989,-367.6085 336.1744,-366.9766 337.023,-366.4268 337.7363,-365.9647 338.3058,-365.5958 338.7231,-365.3255 338.9797,-365.1593 339.0425,-365.1187 340.3479,-364.9826 344.1676,-364.5838 350.1964,-363.9544 358.1581,-363.1232 367.7765,-362.119 378.7756,-360.9707 390.8792,-359.707 403.8111,-358.3569 417.2954,-356.9491 431.0557,-355.5125 444.8161,-354.0759 458.3003,-352.6681 471.2322,-351.318 483.3358,-350.0544 494.3349,-348.9061 503.9533,-347.9019 511.915,-347.0707 517.9438,-346.4413 521.7636,-346.0425 523.1332,-345.8993 524.8657,-345.581 529.7251,-344.6886 537.3947,-343.2802 547.5233,-341.4201 559.7596,-339.173 573.7522,-336.6034 589.15,-333.7757 605.6016,-330.7545 622.7558,-327.6043 640.2613,-324.3896 657.7668,-321.1748 674.9209,-318.0246 691.3726,-315.0034 706.7703,-312.1757 720.763,-309.6061 732.9993,-307.359 743.1278,-305.499 750.7975,-304.0905 755.6568,-303.1981 758.358,-302.6977 758.9235,-301.3912 759.3845,-300.3349 760.1121,-298.6677 761.0729,-296.466 762.2337,-293.8061 763.5612,-290.7644 765.0219,-287.4173 766.5826,-283.8411 768.21,-280.1122 769.8707,-276.307 771.5314,-272.5017 773.1587,-268.7728 774.7194,-265.1966 776.1802,-261.8495 777.5076,-258.8078 778.6684,-256.1479 779.6293,-253.9462 780.3569,-252.279 780.8179,-251.2227 781.1552,-250.445 781.1553,-249.991 781.1555,-249.928 781.1562,-249.757 781.1577,-249.424 781.16,-248.875 781.1635,-248.056 781.1683,-246.913 781.1748,-245.392 781.1831,-243.439 781.1934,-241 781.2061,-238.021 781.2212,-234.448 781.2392,-230.227 781.2601,-225.304 781.2842,-219.625 781.3117,-213.136 781.343,-205.783 781.3781,-197.512 781.4173,-188.269 781.4609,-177.8299 781.3519,-177.0254 781.1043,-175.1849 780.7082,-172.2414 780.1773,-168.2965 779.5254,-163.4517 778.766,-157.8085 777.9129,-151.4685 776.9796,-144.5331 775.9799,-137.1039 774.9275,-129.2824 773.8358,-121.1702 772.7187,-112.8686 771.5899,-104.4793 770.4628,-96.1038 769.3513,-87.8436 768.2689,-79.8001 767.2294,-72.0751 766.2464,-64.7698 765.3335,-57.986 764.5045,-51.825 758.5615,-52.6504 759.4429,-58.8041 760.4133,-65.58 761.4583,-72.8766 762.5634,-80.5926 763.714,-88.6265 764.8956,-96.877 766.0938,-105.2427 767.2938,-113.6221 768.4814,-121.9138 769.6419,-130.0165 770.7607,-137.8288 771.8235,-145.2493 772.8156,-152.1765 773.7225,-158.509 774.5298,-164.1456 775.2228,-168.9846 775.7871,-172.9249 776.2082,-175.8649 776.4715,-177.7032 776.5391,-178.1701 776.5827,-188.269 776.6219,-197.512 776.657,-205.783 776.6883,-213.136 776.7158,-219.625 776.7399,-225.304 776.7608,-230.227 776.7788,-234.448 776.7939,-238.021 776.8066,-241 776.8169,-243.439 776.8252,-245.392 776.8317,-246.913 776.8365,-248.056 776.84,-248.875 776.8423,-249.424 776.8438,-249.757 776.8445,-249.928 776.8447,-249.991 776.8448,-249.555 776.8631,-249.5168 776.4111,-250.577 775.6977,-252.2503 774.7556,-254.4601 773.6174,-257.1297 772.3158,-260.1825 770.8836,-263.5419 769.3533,-267.1312 767.7576,-270.8738 766.1293,-274.693 764.501,-278.5123 762.9054,-282.2549 761.3751,-285.8442 759.9428,-289.2036 758.6413,-292.2564 757.5031,-294.926 756.5609,-297.1358 755.8475,-298.8091 755.3955,-299.8693 755.642,-299.3023 754.9502,-299.4399 750.0985,-300.3735 742.4412,-301.847 732.3287,-303.793 720.112,-306.1439 706.1417,-308.8323 690.7684,-311.7906 674.3431,-314.9514 657.2162,-318.2472 639.7387,-321.6104 622.2612,-324.9737 605.1344,-328.2695 588.709,-331.4303 573.3358,-334.3886 559.3654,-337.077 547.1487,-339.4279 537.0363,-341.3738 529.3789,-342.8474 524.5273,-343.781 522.8668,-344.1007 521.5684,-344.2475 517.7522,-344.6787 511.729,-345.3593 503.7747,-346.2581 494.1651,-347.3439 483.1762,-348.5856 471.0838,-349.952 458.1637,-351.4119 444.6919,-352.9341 430.9443,-354.4875 417.1966,-356.0409 403.7249,-357.5631 390.8048,-359.023 378.7124,-360.3893 367.7235,-361.631 358.1139,-362.7168 350.1596,-363.6156 344.1364,-364.2962 340.3201,-364.7274 338.9575,-364.8813 338.846,-364.9547 338.5908,-365.1231 338.1758,-365.397 337.6094,-365.7707 336.9001,-366.2389 336.0562,-366.7958 335.0861,-367.436 333.9983,-368.1538 332.8012,-368.9438 331.5032,-369.8004 330.1128,-370.718 328.6383,-371.691 327.0882,-372.714 325.4708,-373.7813 323.7947,-374.8874 322.0682,-376.0268 320.2997,-377.1938 318.4977,-378.383 316.6706,-379.5888 314.8268,-380.8056 314.8268,-380.8056"/>
</g>
<!-- torch_utils -->
<g id="node8" class="node">
<title>torch_utils</title>
<polygon fill="#ffd56b" stroke="#dfe0df" points="424,-417 348,-417 348,-381 424,-381 424,-417"/>
<text text-anchor="middle" x="386" y="-395.3" font-family="Times,serif" font-size="14.00" fill="#000000">torch_utils</text>
</g>
<!-- gen_wts -->
<g id="node19" class="node">
<title>gen_wts</title>
<polygon fill="#ff7b54" stroke="#dfe0df" points="861.5,-345 798.5,-345 798.5,-309 861.5,-309 861.5,-345"/>
<text text-anchor="middle" x="830" y="-323.3" font-family="Times,serif" font-size="14.00" fill="#000000">gen_wts</text>
</g>
<!-- torch_utils&#45;&gt;gen_wts -->
<g id="edge18" class="edge">
<title>torch_utils&#45;&gt;gen_wts</title>
<polygon fill="#a3d2ca" stroke="transparent" stroke-width="6" points="411.6863,-380.8056 413.4022,-379.6097 415.1026,-378.4246 416.7797,-377.2558 418.4255,-376.1088 420.0323,-374.989 421.5922,-373.9018 423.0973,-372.8528 424.54,-371.8474 425.9122,-370.8911 427.2062,-369.9892 428.4142,-369.1473 429.5283,-368.3709 430.5406,-367.6654 431.4434,-367.0362 432.2288,-366.4888 432.889,-366.0287 433.4161,-365.6614 433.8023,-365.3922 434.0398,-365.2267 434.0717,-365.205 436.5505,-365.0828 443.8162,-364.7232 455.2837,-364.1557 470.4278,-363.4063 488.7233,-362.5009 509.6449,-361.4655 532.6674,-360.3262 557.2656,-359.1088 582.9143,-357.8395 609.0882,-356.5443 635.2622,-355.249 660.9108,-353.9797 685.5091,-352.7624 708.5316,-351.623 729.4532,-350.5877 747.7487,-349.6823 762.8928,-348.9328 774.3603,-348.3653 781.626,-348.0058 784.6233,-347.8539 785.0973,-347.6688 785.2333,-347.6168 785.4557,-347.5317 785.7611,-347.4149 786.1462,-347.2676 786.6074,-347.0912 787.1414,-346.8869 787.7447,-346.6561 788.4139,-346.4001 789.1456,-346.1202 789.9363,-345.8178 790.7827,-345.494 791.6812,-345.1503 792.6285,-344.7879 793.6212,-344.4082 794.6558,-344.0125 795.7288,-343.602 796.8369,-343.1781 797.9767,-342.7421 799.1447,-342.2953 796.9583,-336.7079 795.7973,-337.1724 794.6643,-337.6258 793.5628,-338.0665 792.4961,-338.4933 791.4677,-338.9048 790.481,-339.2997 789.5393,-339.6765 788.6461,-340.0338 787.8048,-340.3705 787.0188,-340.685 786.2915,-340.976 785.6262,-341.2422 785.0265,-341.4822 784.4957,-341.6946 784.0372,-341.878 783.6545,-342.0312 783.3508,-342.1527 783.1297,-342.2411 782.9946,-342.2952 783.3767,-342.1461 781.299,-342.2842 774.0397,-342.7547 762.5822,-343.4972 747.4513,-344.4777 729.1718,-345.6623 708.2684,-347.017 685.2659,-348.5076 660.6892,-350.1003 635.0628,-351.761 608.9118,-353.4557 582.7607,-355.1505 557.1344,-356.8112 532.5576,-358.4038 509.5551,-359.8945 488.6517,-361.2491 470.3722,-362.4337 455.2413,-363.4143 443.7838,-364.1568 436.5245,-364.6272 433.9283,-364.795 433.7993,-364.8873 433.5644,-365.0564 433.1824,-365.3314 432.6609,-365.7068 432.0079,-366.1769 431.2309,-366.7362 430.3378,-367.3791 429.3364,-368.1 428.2343,-368.8933 427.0393,-369.7535 425.7592,-370.675 424.4017,-371.6522 422.9746,-372.6795 421.4856,-373.7514 419.9425,-374.8622 418.353,-376.0065 416.7249,-377.1785 415.0659,-378.3727 413.3838,-379.5836 411.6863,-380.8056 411.6863,-380.8056"/>
</g>
<!-- experimental -->
<g id="node9" class="node">
<title>experimental</title>
<polygon fill="#ffb26b" stroke="#dfe0df" points="634,-196 544,-196 544,-160 634,-160 634,-196"/>
<text text-anchor="middle" x="589" y="-174.3" font-family="Times,serif" font-size="14.00" fill="#000000">experimental</text>
</g>
<!-- yolo -->
<g id="node12" class="node">
<title>yolo</title>
<polygon fill="#ff7b54" stroke="#dfe0df" points="616,-124 562,-124 562,-88 616,-88 616,-124"/>
<text text-anchor="middle" x="589" y="-102.3" font-family="Times,serif" font-size="14.00" fill="#000000">yolo</text>
</g>
<!-- experimental&#45;&gt;yolo -->
<g id="edge6" class="edge">
<title>experimental&#45;&gt;yolo</title>
<polygon fill="#a3d2ca" stroke="transparent" stroke-width="6" points="589,-159.8314 589.1394,-158.1858 589.2821,-156.5012 589.4277,-154.7821 589.5759,-153.0326 589.7263,-151.257 589.8785,-149.4597 590.0322,-147.6449 590.1871,-145.8169 590.3427,-143.9799 590.4986,-142.1384 590.6546,-140.2966 590.8103,-138.4587 590.9653,-136.6291 591.1192,-134.812 591.2717,-133.0118 591.4224,-131.2327 591.5709,-129.479 591.7169,-127.755 591.8601,-126.065 592,-124.4133 586,-124.4133 586.1399,-126.065 586.2831,-127.755 586.4291,-129.479 586.5776,-131.2327 586.7283,-133.0118 586.8808,-134.812 587.0347,-136.6291 587.1897,-138.4587 587.3454,-140.2966 587.5014,-142.1384 587.6573,-143.9799 587.8129,-145.8169 587.9678,-147.6449 588.1215,-149.4597 588.2737,-151.257 588.4241,-153.0326 588.5723,-154.7821 588.7179,-156.5012 588.8606,-158.1858 589,-159.8314 589,-159.8314"/>
</g>
<!-- onnx_export -->
<g id="node10" class="node">
<title>onnx_export</title>
<polygon fill="#ffb26b" stroke="#dfe0df" points="739.5,-196 652.5,-196 652.5,-160 739.5,-160 739.5,-196"/>
<text text-anchor="middle" x="696" y="-174.3" font-family="Times,serif" font-size="14.00" fill="#000000">onnx_export</text>
</g>
<!-- common&#45;&gt;experimental -->
<g id="edge3" class="edge">
<title>common&#45;&gt;experimental</title>
<polygon fill="#a3d2ca" stroke="transparent" stroke-width="6" points="589,-231.8314 589.1394,-230.1858 589.2821,-228.5012 589.4277,-226.7821 589.5759,-225.0326 589.7263,-223.257 589.8785,-221.4597 590.0322,-219.6449 590.1871,-217.8169 590.3427,-215.9799 590.4986,-214.1384 590.6546,-212.2966 590.8103,-210.4587 590.9653,-208.6291 591.1192,-206.812 591.2717,-205.0118 591.4224,-203.2327 591.5709,-201.479 591.7169,-199.755 591.8601,-198.065 592,-196.4133 586,-196.4133 586.1399,-198.065 586.2831,-199.755 586.4291,-201.479 586.5776,-203.2327 586.7283,-205.0118 586.8808,-206.812 587.0347,-208.6291 587.1897,-210.4587 587.3454,-212.2966 587.5014,-214.1384 587.6573,-215.9799 587.8129,-217.8169 587.9678,-219.6449 588.1215,-221.4597 588.2737,-223.257 588.4241,-225.0326 588.5723,-226.7821 588.7179,-228.5012 588.8606,-230.1858 589,-231.8314 589,-231.8314"/>
</g>
<!-- common&#45;&gt;onnx_export -->
<g id="edge4" class="edge">
<title>common&#45;&gt;onnx_export</title>
<polygon fill="#a3d2ca" stroke="transparent" stroke-width="6" points="614.6977,-231.9421 615.665,-231.3275 616.6089,-230.7278 617.5267,-230.1447 618.4153,-229.58 619.2721,-229.0356 620.0942,-228.5132 620.8788,-228.0147 621.6229,-227.5419 622.3238,-227.0966 622.9787,-226.6805 623.5847,-226.2954 624.1389,-225.9433 624.6385,-225.6258 625.0808,-225.3448 625.4627,-225.1021 625.7816,-224.8995 626.0346,-224.7388 626.2188,-224.6217 626.3314,-224.5502 626.3614,-224.5317 626.5256,-224.4349 627.0302,-224.136 627.8465,-223.6523 628.9546,-222.9958 630.3344,-222.1783 631.9657,-221.2117 633.8286,-220.108 635.9029,-218.8789 638.1686,-217.5365 640.6057,-216.0926 643.1939,-214.5591 645.9133,-212.9479 648.7438,-211.2708 651.6653,-209.5398 654.6578,-207.7668 657.7011,-205.9637 660.7753,-204.1423 663.8601,-202.3145 666.9356,-200.4923 669.9817,-198.6875 666.6866,-193.6733 663.8213,-195.7532 660.9283,-197.8531 658.0265,-199.9594 655.1348,-202.0584 652.2721,-204.1364 649.4572,-206.1796 646.7091,-208.1744 644.0465,-210.1071 641.4885,-211.9639 639.0538,-213.7312 636.7614,-215.3951 634.6302,-216.9422 632.679,-218.3585 630.9266,-219.6305 629.3921,-220.7444 628.0942,-221.6865 627.0519,-222.4431 626.284,-223.0005 625.8094,-223.3449 625.6386,-223.4683 625.5947,-223.5018 625.4892,-223.5835 625.3167,-223.7171 625.0797,-223.9006 624.781,-224.132 624.4232,-224.4091 624.009,-224.73 623.541,-225.0925 623.0219,-225.4946 622.4543,-225.9342 621.8409,-226.4093 621.1844,-226.9178 620.4873,-227.4577 619.7525,-228.0269 618.9825,-228.6233 618.1799,-229.245 617.3475,-229.8897 616.4879,-230.5555 615.6038,-231.2404 614.6977,-231.9421 614.6977,-231.9421"/>
</g>
<!-- yolo&#45;&gt;train -->
<g id="edge10" class="edge">
<title>yolo&#45;&gt;train</title>
<polygon fill="#a3d2ca" stroke="transparent" stroke-width="6" points="567.4695,-87.9421 566.712,-87.2514 565.9728,-86.5773 565.2542,-85.922 564.5583,-85.2874 563.8873,-84.6755 563.2436,-84.0884 562.6292,-83.5282 562.0465,-82.9968 561.4976,-82.4963 560.9848,-82.0286 560.5103,-81.5959 560.0763,-81.2001 559.685,-80.8433 559.3387,-80.5275 559.0396,-80.2547 558.7899,-80.027 558.5918,-79.8464 558.4475,-79.7148 558.3594,-79.6344 558.2959,-79.579 558.0503,-79.4242 557.4444,-79.0369 556.4659,-78.4114 555.1404,-77.5642 553.4937,-76.5116 551.5515,-75.2701 549.3393,-73.856 546.8829,-72.2859 544.2078,-70.576 541.3399,-68.7428 538.3047,-66.8027 535.1279,-64.7721 531.8353,-62.6674 528.4523,-60.505 525.0048,-58.3014 521.5184,-56.0728 518.0187,-53.8358 514.5315,-51.6068 511.0823,-49.402 507.6969,-47.2381 504.6777,-52.4231 508.2308,-54.2992 511.8507,-56.2107 515.5106,-58.1433 519.1835,-60.0827 522.8426,-62.0148 526.4607,-63.9254 530.0112,-65.8001 533.4668,-67.6249 536.8009,-69.3854 539.9863,-71.0674 542.9963,-72.6568 545.8037,-74.1392 548.3818,-75.5005 550.7035,-76.7265 552.7419,-77.8028 554.4701,-78.7154 555.8611,-79.4499 556.8881,-79.9922 557.524,-80.328 557.7041,-80.421 557.7026,-80.4175 557.7971,-80.4904 557.9517,-80.6095 558.1641,-80.7731 558.4318,-80.9794 558.7525,-81.2264 559.1238,-81.5125 559.5433,-81.8356 560.0086,-82.1941 560.5173,-82.586 561.0671,-83.0096 561.6555,-83.463 562.2803,-83.9443 562.9389,-84.4517 563.6291,-84.9834 564.3484,-85.5376 565.0945,-86.1124 565.8649,-86.706 566.6574,-87.3165 567.4695,-87.9421 567.4695,-87.9421"/>
</g>
<!-- yolo&#45;&gt;hubconf -->
<g id="edge13" class="edge">
<title>yolo&#45;&gt;hubconf</title>
<polygon fill="#a3d2ca" stroke="transparent" stroke-width="6" points="610.5305,-87.9421 611.331,-87.3026 612.1121,-86.6786 612.8715,-86.0719 613.6069,-85.4843 614.316,-84.9179 614.9962,-84.3744 615.6455,-83.8557 616.2613,-83.3637 616.8413,-82.9003 617.3832,-82.4674 617.8847,-82.0668 618.3433,-81.7004 618.7568,-81.37 619.1227,-81.0777 619.4388,-80.8251 619.7027,-80.6143 619.912,-80.4471 620.0645,-80.3253 620.1576,-80.2508 620.146,-80.2618 620.586,-80.1292 622.0196,-79.6923 624.3235,-78.9903 627.4274,-78.0446 631.2615,-76.8763 635.7555,-75.5069 640.8395,-73.9578 646.4435,-72.2502 652.4973,-70.4056 658.931,-68.4452 665.6745,-66.3904 672.6577,-64.2626 679.8106,-62.083 687.0631,-59.8731 694.3452,-57.6542 701.5869,-55.4476 708.7181,-53.2747 715.6688,-51.1568 722.3688,-49.1152 728.7482,-47.1714 726.8632,-41.4752 720.5836,-43.7207 713.9883,-46.079 707.1464,-48.5255 700.1268,-51.0356 692.9984,-53.5846 685.8302,-56.1478 678.6912,-58.7006 671.6502,-61.2183 664.7763,-63.6763 658.1383,-66.0499 651.8053,-68.3144 645.8462,-70.4453 640.3299,-72.4178 635.3254,-74.2073 630.9017,-75.7891 627.1276,-77.1387 624.0723,-78.2312 621.8045,-79.0421 620.3932,-79.5468 619.854,-79.7382 619.7804,-79.8011 619.6909,-79.8799 619.5444,-80.0088 619.3433,-80.1858 619.0898,-80.409 618.786,-80.6763 618.4344,-80.9857 618.0372,-81.3354 617.5965,-81.7232 617.1147,-82.1473 616.594,-82.6055 616.0367,-83.096 615.4451,-83.6168 614.8213,-84.1658 614.1676,-84.741 613.4864,-85.3406 612.7798,-85.9625 612.0501,-86.6047 611.2996,-87.2652 610.5305,-87.9421 610.5305,-87.9421"/>
</g>
<!-- test&#45;&gt;train -->
<g id="edge9" class="edge">
<title>test&#45;&gt;train</title>
<polygon fill="#a3d2ca" stroke="transparent" stroke-width="6" points="394.7118,-159.5669 396.6647,-155.1904 398.7441,-150.5304 400.9256,-145.6417 403.1846,-140.5793 405.4966,-135.3981 407.8371,-130.1531 410.1815,-124.8991 412.5054,-119.6912 414.7843,-114.5843 416.9936,-109.6332 419.1088,-104.893 421.1054,-100.4185 422.959,-96.2647 424.6449,-92.4865 426.1387,-89.1388 427.4159,-86.2767 428.4519,-83.9549 429.2223,-82.2285 429.7025,-81.1524 429.6929,-81.1999 429.4808,-81.3964 429.8451,-81.0831 430.4344,-80.5761 431.2343,-79.8879 432.2304,-79.031 433.4081,-78.0179 434.753,-76.8609 436.2505,-75.5727 437.8862,-74.1655 439.6455,-72.652 441.514,-71.0446 443.4772,-69.3557 445.5206,-67.5978 447.6298,-65.7834 449.7901,-63.925 451.9871,-62.0349 454.2064,-60.1258 456.4334,-58.2099 458.6537,-56.2999 460.8528,-54.4081 456.8341,-49.9527 454.7263,-51.9456 452.5981,-53.9577 450.4634,-55.9759 448.3362,-57.9872 446.2303,-59.9782 444.1595,-61.936 442.1379,-63.8474 440.1792,-65.6992 438.2974,-67.4784 436.5064,-69.1717 434.82,-70.7661 433.2522,-72.2484 431.8168,-73.6056 430.5277,-74.8243 429.3988,-75.8916 428.4441,-76.7943 427.6773,-77.5193 427.1124,-78.0534 426.7633,-78.3835 426.3071,-78.8001 425.9841,-79.5968 425.5549,-80.6942 424.8664,-82.4549 423.9405,-84.8227 422.7991,-87.7416 421.464,-91.1557 419.9572,-95.0088 418.3006,-99.245 416.5162,-103.8083 414.6257,-108.6426 412.6512,-113.6919 410.6145,-118.9001 408.5376,-124.2114 406.4423,-129.5695 404.3505,-134.9186 402.2842,-140.2026 400.2653,-145.3654 398.3156,-150.3511 396.4572,-155.1036 394.7118,-159.5669 394.7118,-159.5669"/>
</g>
<!-- 教程 -->
<g id="node16" class="node">
<title>教程</title>
<polygon fill="#ffd56b" stroke="#dfe0df" points="209,-417 155,-417 155,-381 209,-381 209,-417"/>
<text text-anchor="middle" x="182" y="-395.3" font-family="Times,serif" font-size="14.00" fill="#000000">教程</text>
</g>
<!-- get_coco2017 -->
<g id="node17" class="node">
<title>get_coco2017</title>
<polygon fill="#ffd56b" stroke="#dfe0df" points="119.5,-417 24.5,-417 24.5,-381 119.5,-381 119.5,-417"/>
<text text-anchor="middle" x="72" y="-395.3" font-family="Times,serif" font-size="14.00" fill="#000000">get_coco2017</text>
</g>
</g>
</svg>
